<svg width="90" height="90" fill="none" xmlns="http://www.w3.org/2000/svg"><g clip-path="url(#clip0)"><path d="M0 0h90v90H0V0z" fill="#31302A"/><path d="M13.122 84.276c-4.608 0-7.722-2.358-7.722-6.732v-.162h2.52v.108c0 2.862 2.07 4.554 5.22 4.554 1.692 0 4.878-.738 4.878-3.42 0-5.22-12.006-1.512-12.006-8.982 0-3.762 3.51-5.454 6.984-5.454 4.104 0 6.876 2.358 6.876 6.174v.162h-2.52v-.162c0-2.466-1.746-3.924-4.554-3.924-1.962 0-4.266.846-4.266 3.096 0 4.878 12.006 1.458 12.006 8.982.018 3.96-3.708 5.76-7.416 5.76zm24.75-.576c-.216-.558-.378-2.466-.378-3.366V70.02c0-4.104-2.52-5.832-6.894-5.832-4.032 0-7.578 1.8-7.578 6.228v.162h2.52v-.162c0-2.862 2.142-3.978 4.77-3.978 3.15 0 4.608 1.116 4.608 3.654 0 1.962-.954 2.196-2.754 2.412l-.954.108c-4.428.504-8.982 1.008-8.982 6.066 0 3.474 2.358 5.616 6.282 5.616 3.42 0 5.616-1.512 6.57-3.6 0 0 0 2.016.288 3.024l2.502-.018zm-2.952-7.344c0 1.458-.504 2.808-1.458 3.816-1.17 1.17-2.862 1.854-4.77 1.854-1.854 0-3.924-1.008-3.924-3.42 0-2.916 3.15-3.6 6.516-3.978l1.8-.216c.504-.054 1.458-.216 1.854-.558l-.018 2.502zm19.26-11.628h-2.7L46.314 80.82l-5.22-16.074H38.16L44.91 83.7h2.754l6.516-18.972zm4.284-4.986a1.767 1.767 0 00-1.764-1.764c-.936 0-1.764.774-1.764 1.71 0 1.008.828 1.764 1.764 1.764s1.764-.774 1.764-1.764v.054zM58.05 83.7V64.728h-2.646V83.7h2.646zm5.22 0V57.546h-2.646V83.7h2.646zm5.166 0V57.546H65.79V83.7h2.646zm9.234.576c3.708 0 7.434-1.8 7.434-5.778 0-7.524-12.06-4.104-12.06-8.982 0-2.25 2.304-3.096 4.32-3.096 2.808 0 4.554 1.458 4.554 3.924v.162h2.52v-.162c0-3.816-2.79-6.174-6.93-6.174-3.474 0-6.984 1.692-6.984 5.454 0 7.47 12.06 3.762 12.06 8.982 0 2.7-3.258 3.42-4.932 3.42-3.096 0-5.22-1.692-5.22-4.554v-.108h-2.52v.162c-.018 4.392 3.096 6.75 7.758 6.75z" fill="#F7EBD0"/></g><defs><clipPath id="clip0"><path fill="#fff" d="M0 0h90v90H0z"/></clipPath></defs></svg>