<svg width="90" height="90" fill="none" xmlns="http://www.w3.org/2000/svg"><g clip-path="url(#clip0)"><path fill="#fff" d="M0 0h90v90H0z"/><path d="M90 0H0v90h90V0z" fill="#31302A"/><path d="M13.858 46.612c0 1.16-.706 1.915-2.066 2.016v2.822c3.023-.1 5.09-1.663 5.09-4.938 0-2.42-1.11-3.83-3.982-4.99l-1.763-.705c-1.361-.554-2.218-1.007-2.218-2.267 0-1.16.807-1.714 1.966-1.865v-2.872c-3.024.1-4.99 1.814-4.99 4.686 0 2.57 1.11 3.83 3.83 4.939l1.815.756c1.461.604 2.267 1.21 2.318 2.418z" fill="#F7EBD0"/><path d="M6.249 45.453c-.202-.05-.404.101-.454.353v.454c0 2.973 1.663 5.039 5.09 5.19v-2.822c-1.613-.201-2.117-1.31-2.117-2.62v-.101c.05-.201-.1-.403-.353-.453H6.25zm10.381-6.45c0-3.074-1.865-4.938-4.889-5.14v2.873c1.31.15 2.016 1.108 2.016 2.469v.151c-.05.202.1.403.353.454h2.116c.202.05.403-.101.454-.353v-.454h-.05zm1.662-4.938h2.167c.202 0 .403.202.403.403v16.428a.434.434 0 01-.403.403h-2.167a.433.433 0 01-.403-.403V34.468c0-.202.202-.403.403-.403zm3.377 7.307c.352-.101.655-.101 1.007-.101.404-.05.857.1 1.16.353.352.403.503.957.402 1.461v7.81c0 .253.101.404.404.404h2.166a.345.345 0 00.353-.353v-8.314c0-1.411-.302-2.319-.957-3.074a3.643 3.643 0 00-2.721-1.059c-.655 0-1.31.152-1.915.404l.1 2.469zm6.551 5.543c0 1.562.251 2.47.907 3.225a4.941 4.941 0 003.376 1.36v-2.62a1.703 1.703 0 01-.958-.453 2.102 2.102 0 01-.302-1.36v-1.06h5.845c.303 0 .404-.1.404-.402v-2.52c0-1.562-.252-2.47-.907-3.225a4.729 4.729 0 00-3.326-1.36v2.57a1.7 1.7 0 01.957.453c.252.403.353.857.303 1.36v.706h-3.326v-.705c-.05-.454.05-.958.302-1.361a1.24 1.24 0 01.957-.454V38.5c-1.26 0-2.469.454-3.376 1.361-.655.706-.907 1.663-.907 3.225v3.83h.05z" fill="#F7EBD0"/><path d="M37.34 47.52c0-.303-.1-.353-.403-.353h-1.915c-.302 0-.403.1-.403.353-.05.755-.352 1.209-1.36 1.36v2.57c2.52 0 4.081-1.41 4.081-3.88v-.05zm3.78 3.779c.201.05.352-.1.403-.302V41.22h2.318c.201.05.353-.101.403-.303v-1.814c.05-.201-.1-.353-.302-.403h-2.419v-.806c0-.555.05-.857.252-1.008.302-.202.655-.252 1.008-.202h1.26c.302 0 .403-.1.403-.403v-1.814c0-.302-.101-.403-.404-.403h-1.864c-1.36 0-2.268.252-2.872.806-.605.554-.756 1.36-.756 2.52v13.505c-.05.201.1.353.302.403h2.268zm6.55 0c.202.05.353-.1.404-.302V41.22h2.318c.201.05.353-.101.403-.303v-1.814c.05-.201-.1-.353-.302-.403h-2.419v-.806c0-.555.1-.857.252-1.008.302-.202.655-.252 1.008-.202h1.26c.252 0 .403-.1.403-.403v-1.814c0-.302-.101-.403-.404-.403H48.73c-1.36 0-2.268.252-2.872.806-.605.554-.756 1.36-.756 2.52v13.505c0 .252.1.403.403.403h2.167zm4.637-12.547h2.167c.201 0 .403.201.403.403v11.74a.434.434 0 01-.403.404h-2.167a.434.434 0 01-.403-.403V39.155c0-.252.15-.404.403-.404zm0-4.687h2.167c.201 0 .403.202.403.403v2.016a.434.434 0 01-.403.403h-2.167a.434.434 0 01-.403-.403v-2.016c0-.202.15-.403.403-.403zm3.729 12.85c0 1.562.252 2.47.907 3.225a4.942 4.942 0 003.376 1.36v-2.62a1.703 1.703 0 01-.957-.453 2.101 2.101 0 01-.303-1.36v-1.06h5.846c.302 0 .403-.1.403-.402v-2.52c0-1.562-.252-2.47-.907-3.225-.907-.857-2.066-1.36-3.326-1.36v2.57c.353.05.706.201.957.453.253.403.353.857.303 1.36v.706h-3.326v-.756c-.05-.453.05-.957.302-1.36a1.24 1.24 0 01.958-.454v-2.57c-1.26 0-2.47.454-3.377 1.36-.655.706-.907 1.664-.907 3.226l.05 3.88z" fill="#F7EBD0"/><path d="M65.106 47.52c0-.303-.1-.353-.403-.353h-1.915c-.302 0-.403.1-.403.353-.05.806-.352 1.26-1.36 1.41v2.57c2.52 0 4.081-1.41 4.081-3.88v-.1zm1.613-13.455h2.167c.201 0 .403.202.403.403v16.428a.433.433 0 01-.403.403h-2.167a.433.433 0 01-.403-.403V34.468c0-.202.201-.403.403-.403zm3.679 13.303c0 1.411.302 2.318.957 3.074a3.643 3.643 0 002.721 1.059c.706 0 1.411-.152 2.066-.454v-2.318c-.352.1-.756.151-1.159.151-.403.05-.856-.1-1.159-.353a1.738 1.738 0 01-.403-1.461v-3.98c-.05-.505.1-1.06.403-1.462.303-.303.756-.403 1.16-.353.402 0 .755.05 1.158.151v-2.318a4.93 4.93 0 00-2.066-.453c-1.008-.05-1.965.352-2.721 1.058-.655.705-.957 1.663-.957 3.074v4.585zm6.852-13.303h2.168c.201 0 .403.202.403.403v16.428a.434.434 0 01-.403.403H77.25a.433.433 0 01-.403-.403V34.468c0-.202.201-.403.403-.403z" fill="#F7EBD0"/></g><defs><clipPath id="clip0"><path fill="#fff" d="M0 0h90v90H0z"/></clipPath></defs></svg>