<svg width="90" height="90" fill="none" xmlns="http://www.w3.org/2000/svg"><path fill-rule="evenodd" clip-rule="evenodd" d="M3.282 52.11H6.56c.142 0 .268.104.286.245.224 1.836 1.903 2.887 4.356 2.887 2.29 0 3.636-1.078 3.636-2.458 0-4.175-11.347-.337-11.347-7.643 0-3.333 2.93-5.589 7.744-5.589 4.257 0 7.081 2.23 7.48 5.82a.28.28 0 01-.28.308h-3.23a.285.285 0 01-.286-.248c-.206-1.871-1.663-2.985-3.987-2.985-2.222 0-3.501 1.044-3.501 2.526 0 3.973 11.346.202 11.346 7.71 0 3.333-2.929 5.454-7.71 5.454-4.785 0-7.815-2.169-8.066-5.73a.28.28 0 01.281-.296zm20.48.775v-9.26h-3.457a.28.28 0 01-.281-.28v-2.974a.28.28 0 01.28-.28h3.457v-4.433a.28.28 0 01.281-.28h3.412a.28.28 0 01.28.28v4.433h4.568a.28.28 0 01.28.28v2.974a.28.28 0 01-.28.28h-4.568v7.543c0 2.819.128 3.212 3.738 2.952a.283.283 0 01.302.28v2.907a.283.283 0 01-.259.28c-5.28.442-7.853.168-7.754-4.702zm11.713-12.794h3.277a.28.28 0 01.28.28l-.014 3.051c1.113-2.29 3.37-3.468 6.65-3.532a.283.283 0 01.286.282v3.175a.28.28 0 01-.279.279c-3.801.05-6.657 1.15-6.657 4.24l.015 9.452a.28.28 0 01-.28.28h-3.278a.28.28 0 01-.28-.28V40.371a.28.28 0 01.28-.28zm11.849-5.151c0-1.672 1.3-2.935 2.971-2.935 1.71 0 2.972 1.263 2.972 2.934 0 1.672-1.337 2.935-2.972 2.935-1.671 0-2.971-1.263-2.971-2.935zm1.283 5.15h3.378a.28.28 0 01.28.281v16.947a.28.28 0 01-.28.28h-3.378a.28.28 0 01-.281-.28V40.371a.28.28 0 01.28-.28zM55.44 31h3.412a.28.28 0 01.281.28v15.376l7.631-6.498a.283.283 0 01.183-.067h4.275a.28.28 0 01.18.495l-7.657 6.407 8.535 10.144a.28.28 0 01-.215.462h-4.113a.28.28 0 01-.217-.103l-6.717-8.214-1.885 1.583v6.453a.28.28 0 01-.28.28H55.44a.28.28 0 01-.28-.28V31.281a.28.28 0 01.28-.281" fill="#31302A"/><path fill-rule="evenodd" clip-rule="evenodd" d="M84.06 47.33c-.134-2.56-1.75-4.377-4.174-4.377-2.795 0-4.377 1.75-4.781 4.376h8.956zm-13.03 1.48c0-5.42 3.738-9.259 8.99-9.259 4.411 0 7.98 3.333 7.98 9.057v1.167a.28.28 0 01-.28.28H75.104c.235 2.896 1.919 4.849 4.915 4.849 2.048 0 3.456-1.124 3.852-2.391a.277.277 0 01.262-.201h3.392a.28.28 0 01.276.333c-.687 3.164-3.747 5.491-7.782 5.491-5.252 0-8.99-3.871-8.99-9.326z" fill="#31302A"/></svg>